<svg width="120" height="120" viewBox="0 0 120 120" fill="none" xmlns="http://www.w3.org/2000/svg">
<g clip-path="url(#clip0_191_124)">
<path d="M24.24 0.5H95.76C108.879 0.5 119.5 11.1212 119.515 24.2406V95.76C119.515 108.879 108.879 119.5 95.775 119.5H24.24C11.1209 119.5 0.5 108.879 0.5 95.775V24.24C0.5 11.1211 11.1211 0.5 24.24 0.5Z" stroke="white" stroke-opacity="0.25"/>
<path opacity="0.5" d="M59.0548 27.8162L59.4852 28.5767L59.9228 27.8204L62.3528 23.6204L62.3541 23.618C63.7149 21.2366 66.7528 20.4289 69.1419 21.7941C71.523 23.1547 72.3308 26.192 70.9664 28.581C70.9662 28.5813 70.966 28.5816 70.9659 28.5819L47.552 69.1098L47.1187 69.86H47.985H64.92C67.4485 69.86 69.4358 71.3406 70.5218 73.3788C71.5659 75.3383 71.7476 77.7623 70.792 79.78H21.45C18.6961 79.78 16.49 77.5738 16.49 74.82C16.49 72.0661 18.6961 69.86 21.45 69.86H35.37H35.6588L35.8031 69.6098L53.6231 38.7248L53.7671 38.4752L53.6232 38.2254L48.0591 28.5669C48.059 28.5667 48.0589 28.5666 48.0588 28.5664C46.6959 26.1807 47.4984 23.1704 49.8849 21.7781C52.2702 20.4163 55.2793 21.2187 56.6715 23.6042C56.672 23.605 56.6725 23.6059 56.673 23.6068L59.0548 27.8162ZM32.7468 94.7602L32.7459 94.7619C31.3851 97.1433 28.3472 97.951 25.9581 96.5858C23.5769 95.2252 22.7691 92.1878 24.1336 89.7989C24.1338 89.7986 24.134 89.7983 24.1341 89.798L27.934 83.2213C29.9914 82.614 31.8274 82.5659 33.4671 83.0385C35.0632 83.4986 36.5127 84.4634 37.8208 85.9605L32.7468 94.7602ZM83.207 69.64L83.3513 69.89H83.64H97.845C100.599 69.89 102.805 72.0961 102.805 74.85C102.805 77.6038 100.599 79.81 97.845 79.81H89.955H89.0898L89.5218 80.5596L94.8459 89.798C94.8461 89.7985 94.8464 89.7989 94.8466 89.7993C96.2089 92.185 95.4063 95.1948 93.02 96.5869C90.6344 97.9488 87.6248 97.146 86.2329 94.7598C81.2433 86.1073 76.9462 78.6678 73.3455 72.434C70.4722 67.4594 68.0424 63.2527 66.0582 59.8103L66.0575 59.8092C61.8267 52.5128 64.5242 45.2257 67.4243 42.3509C70.4442 47.5361 74.6531 54.8257 80.0683 64.2044C81.073 65.9444 82.1192 67.7563 83.207 69.64Z" stroke="white"/>
</g>
<defs>
<clipPath id="clip0_191_124">
<rect width="120" height="120" fill="white"/>
</clipPath>
</defs>
</svg>
