<svg width="81" height="30" viewBox="0 0 81 30" fill="none" xmlns="http://www.w3.org/2000/svg">
<g id="logo easymoney">
<g id="EZ$M">
<path d="M0.919922 3.6001H15.9599V7.7281H5.71992V12.7521H14.0399V16.6881H5.71992V21.8721H16.3119V26.0001H0.919922V3.6001Z" fill="white"/>
<path d="M17.1532 3.6001H34.9452V6.7681L23.4572 21.9041H35.2332V26.0001H16.8652V22.8321L28.3532 7.6961H17.1532V3.6001Z" fill="white"/>
</g>
<g id="EZ$M_2">
<path d="M50.4309 13.808C51.4549 14.224 52.2549 14.864 52.8949 15.696C53.5349 16.528 53.8549 17.648 53.8549 19.056C53.8549 20.88 53.1829 22.416 51.9029 23.696C50.6229 24.976 48.9269 25.776 46.8789 26.064V29.424H42.9109V26C40.7989 25.648 39.0709 24.816 37.7909 23.472C36.5109 22.128 35.8389 20.528 35.8389 18.64L40.5429 18.704C40.6069 19.824 41.0549 20.72 41.8869 21.392C42.7189 22.064 43.8069 22.384 45.1829 22.384C46.3029 22.384 47.2309 22.16 47.9349 21.68C48.6389 21.2 49.0229 20.528 49.0229 19.664C49.0229 19.088 48.7989 18.608 48.4149 18.256C48.0309 17.904 47.4549 17.616 46.7509 17.424C46.0469 17.232 44.9269 16.976 43.4549 16.656C41.9829 16.4 40.7349 16.048 39.7429 15.6C38.7189 15.152 37.9189 14.512 37.2789 13.648C36.6389 12.784 36.3509 11.632 36.3509 10.192C36.3509 8.49604 36.9269 7.02404 38.1429 5.80804C39.3589 4.59204 40.9269 3.85604 42.9109 3.53604V0.144043H46.8789V3.60004C48.7989 3.98404 50.3349 4.78404 51.5509 6.00004C52.7349 7.24804 53.3429 8.72004 53.4069 10.448H48.7029C48.5749 9.48804 48.1909 8.72004 47.4869 8.14404C46.7829 7.56804 45.8549 7.24804 44.7029 7.24804C43.6149 7.24804 42.7829 7.47204 42.1429 7.92004C41.5029 8.36804 41.1829 9.00804 41.1829 9.84004C41.1829 10.448 41.3749 10.928 41.7589 11.248C42.1429 11.568 42.6869 11.856 43.3909 12.048C44.0949 12.24 45.1829 12.496 46.6549 12.752C48.1269 13.04 49.4069 13.392 50.4309 13.808Z" fill="#E3FD52"/>
<path d="M55.4549 3.60004H61.7589L67.9669 20.048L73.9829 3.60004H80.1589V26H75.5829V10.992L69.7589 26H65.8549L60.0309 10.992V26H55.4549V3.60004Z" fill="#E3FD52"/>
</g>
</g>
</svg>
