<svg width="120" height="120" viewBox="0 0 120 120" fill="none" xmlns="http://www.w3.org/2000/svg">
<g clip-path="url(#clip0_191_159)">
<path d="M24.24 0.5H95.76C108.879 0.5 119.5 11.1212 119.515 24.2406V95.76C119.515 108.879 108.879 119.5 95.775 119.5H24.24C11.1209 119.5 0.5 108.879 0.5 95.775V24.24C0.5 11.1211 11.1211 0.5 24.24 0.5Z" stroke="white" stroke-opacity="0.25"/>
<g opacity="0.5">
<path d="M61.3519 59.1222L76.2827 75.3523L42.9724 94.3238L42.9689 94.3258C41.9586 94.912 40.8277 95.2594 39.6626 95.3415C38.4975 95.4236 37.329 95.2383 36.2465 94.7996C35.164 94.3609 34.1961 93.6805 33.4169 92.8104C32.7005 92.0105 32.161 91.0698 31.8321 90.0497L61.3519 59.1222Z" stroke="white"/>
<path d="M61.397 59.1298L77.2043 45.2581L91.5127 53.4531L91.5073 53.4752C92.7136 54.1068 93.724 55.0566 94.429 56.2215C95.134 57.3864 95.5067 58.7221 95.5067 60.0838C95.5067 61.4454 95.134 62.7811 94.429 63.946C93.724 65.111 92.7136 66.0607 91.5073 66.6923L91.4992 66.6965L91.4913 66.701L77.2915 74.8089L61.397 59.1298Z" stroke="white"/>
<path d="M31.5001 32.1581H31.5001L31.5001 32.1557C31.4983 31.7912 31.5241 31.4275 31.5768 31.0677L61.6682 59.2079L31.576 88.9099C31.5264 88.5597 31.501 88.2062 31.5001 87.8518V32.1581Z" stroke="white"/>
<path d="M43.0792 25.7062L43.0792 25.7062L43.0834 25.7086L76.3234 44.7533L61.5829 59.3026L31.8353 29.9291C32.3193 28.4367 33.2508 27.1263 34.5067 26.1782C35.8404 25.1712 37.4668 24.628 39.138 24.6312C40.5236 24.635 41.8836 25.0059 43.0792 25.7062Z" stroke="white"/>
</g>
</g>
<defs>
<clipPath id="clip0_191_159">
<rect width="120" height="120" fill="white"/>
</clipPath>
</defs>
</svg>
